<svg width="599" height="514" viewBox="0 0 599 514" fill="none" xmlns="http://www.w3.org/2000/svg">
<rect y="223" width="599" height="291" rx="20" fill="#654520"/>
<rect x="30.5" y="252.5" width="539" height="232" rx="9.5" stroke="white"/>
<path d="M304 9.5L522 222.5H89L304 9.5Z" stroke="#654520" stroke-width="2"/>
<circle cx="302" cy="10" r="10" fill="#654520"/>
<path d="M101.446 367.8C104.293 368.407 106.58 369.83 108.306 372.07C110.033 374.263 110.896 376.783 110.896 379.63C110.896 383.737 109.45 387.003 106.556 389.43C103.71 391.81 99.7198 393 94.5864 393H71.6964V343.86H93.8164C98.8098 343.86 102.706 345.003 105.506 347.29C108.353 349.577 109.776 352.68 109.776 356.6C109.776 359.493 109.006 361.897 107.466 363.81C105.973 365.723 103.966 367.053 101.446 367.8ZM83.6664 363.74H91.5064C93.4664 363.74 94.9598 363.32 95.9864 362.48C97.0598 361.593 97.5964 360.31 97.5964 358.63C97.5964 356.95 97.0598 355.667 95.9864 354.78C94.9598 353.893 93.4664 353.45 91.5064 353.45H83.6664V363.74ZM92.4864 383.34C94.4931 383.34 96.0331 382.897 97.1064 382.01C98.2264 381.077 98.7864 379.747 98.7864 378.02C98.7864 376.293 98.2031 374.94 97.0364 373.96C95.9164 372.98 94.3531 372.49 92.3464 372.49H83.6664V383.34H92.4864ZM129.599 343.86V373.26C129.599 376.2 130.322 378.463 131.769 380.05C133.216 381.637 135.339 382.43 138.139 382.43C140.939 382.43 143.086 381.637 144.579 380.05C146.072 378.463 146.819 376.2 146.819 373.26V343.86H158.789V373.19C158.789 377.577 157.856 381.287 155.989 384.32C154.122 387.353 151.602 389.64 148.429 391.18C145.302 392.72 141.802 393.49 137.929 393.49C134.056 393.49 130.579 392.743 127.499 391.25C124.466 389.71 122.062 387.423 120.289 384.39C118.516 381.31 117.629 377.577 117.629 373.19V343.86H129.599ZM195.684 393L179.164 371.3V393H167.194V343.86H179.164V365.42L195.544 343.86H209.614L190.574 367.94L210.314 393H195.684ZM246.593 384.32H228.253L225.313 393H212.783L230.563 343.86H244.423L262.203 393H249.533L246.593 384.32ZM243.513 375.08L237.423 357.09L231.403 375.08H243.513ZM280.838 383.41C282.425 382.15 283.148 381.567 283.008 381.66C287.582 377.88 291.175 374.777 293.788 372.35C296.448 369.923 298.688 367.38 300.508 364.72C302.328 362.06 303.238 359.47 303.238 356.95C303.238 355.037 302.795 353.543 301.908 352.47C301.022 351.397 299.692 350.86 297.918 350.86C296.145 350.86 294.745 351.537 293.718 352.89C292.738 354.197 292.248 356.063 292.248 358.49H280.698C280.792 354.523 281.632 351.21 283.218 348.55C284.852 345.89 286.975 343.93 289.588 342.67C292.248 341.41 295.188 340.78 298.408 340.78C303.962 340.78 308.138 342.203 310.938 345.05C313.785 347.897 315.208 351.607 315.208 356.18C315.208 361.173 313.505 365.817 310.098 370.11C306.692 374.357 302.352 378.51 297.078 382.57H315.978V392.3H280.838V383.41ZM321.529 383.9V374.24L343.649 342.6H357.019V373.54H362.759V383.9H357.019V393H345.049V383.9H321.529ZM345.889 355.76L334.129 373.54H345.889V355.76ZM415.446 343.86V377.32C415.446 382.5 413.976 386.49 411.036 389.29C408.142 392.09 404.222 393.49 399.276 393.49C394.096 393.49 389.942 392.02 386.816 389.08C383.689 386.14 382.126 381.963 382.126 376.55H394.026C394.026 378.603 394.446 380.167 395.286 381.24C396.126 382.267 397.339 382.78 398.926 382.78C400.372 382.78 401.492 382.313 402.286 381.38C403.079 380.447 403.476 379.093 403.476 377.32V343.86H415.446ZM455.704 384.32H437.364L434.424 393H421.894L439.674 343.86H453.534L471.314 393H458.644L455.704 384.32ZM452.624 375.08L446.534 357.09L440.514 375.08H452.624ZM532.376 343.86V393H520.406V363.53L509.416 393H499.756L488.696 363.46V393H476.726V343.86H490.866L504.656 377.88L518.306 343.86H532.376Z" fill="white"/>
</svg>
