<svg width="46" height="45" viewBox="0 0 46 45" fill="none" xmlns="http://www.w3.org/2000/svg">
<circle cx="22.6279" cy="22.5" r="22.5" fill="#F7F2E5"/>
<path d="M17.0671 10.8454L18.3236 10.4441C19.4996 10.0684 20.7572 10.6763 21.2612 11.8639L22.2646 14.2299C22.7021 15.2601 22.4594 16.4723 21.6649 17.2259L19.4564 19.3236C19.5925 20.5789 20.0141 21.8144 20.7211 23.0301C21.3934 24.2059 22.2942 25.2353 23.3706 26.0576L26.0259 25.1709C27.0316 24.8361 28.1271 25.2223 28.7442 26.1288L30.1816 28.2404C30.9002 29.2951 30.7707 30.7488 29.8806 31.6424L28.9262 32.6003C27.9766 33.5534 26.6209 33.8999 25.3656 33.5079C22.4038 32.5839 19.6804 29.8411 17.1954 25.2794C14.7073 20.71 13.8292 16.8336 14.5611 13.6501C14.8691 12.3108 15.8234 11.2433 17.0694 10.8454" fill="#654520"/>
</svg>
