<svg width="46" height="45" viewBox="0 0 46 45" fill="none" xmlns="http://www.w3.org/2000/svg">
<circle cx="22.6279" cy="22.5" r="22.5" fill="#F7F2E5"/>
<path d="M22.1278 18.0946C19.9774 18.0946 18.2226 19.8495 18.2226 21.9999C18.2226 24.1503 19.9774 25.9052 22.1278 25.9052C24.2782 25.9052 26.0331 24.1503 26.0331 21.9999C26.0331 19.8495 24.2782 18.0946 22.1278 18.0946ZM33.8407 21.9999C33.8407 20.3827 33.8554 18.7802 33.7645 17.1659C33.6737 15.2909 33.246 13.6268 31.8749 12.2558C30.5009 10.8817 28.8397 10.4569 26.9647 10.3661C25.3476 10.2753 23.745 10.2899 22.1308 10.2899C20.5136 10.2899 18.911 10.2753 17.2968 10.3661C15.4218 10.4569 13.7577 10.8847 12.3866 12.2558C11.0126 13.6298 10.5878 15.2909 10.497 17.1659C10.4061 18.7831 10.4208 20.3856 10.4208 21.9999C10.4208 23.6142 10.4061 25.2196 10.497 26.8339C10.5878 28.7089 11.0155 30.3729 12.3866 31.744C13.7606 33.1181 15.4218 33.5429 17.2968 33.6337C18.914 33.7245 20.5165 33.7099 22.1308 33.7099C23.7479 33.7099 25.3505 33.7245 26.9647 33.6337C28.8397 33.5429 30.5038 33.1151 31.8749 31.744C33.2489 30.37 33.6737 28.7089 33.7645 26.8339C33.8583 25.2196 33.8407 23.6171 33.8407 21.9999ZM22.1278 28.0087C18.8026 28.0087 16.119 25.3251 16.119 21.9999C16.119 18.6747 18.8026 15.9911 22.1278 15.9911C25.453 15.9911 28.1366 18.6747 28.1366 21.9999C28.1366 25.3251 25.453 28.0087 22.1278 28.0087ZM28.3827 17.1483C27.6063 17.1483 26.9794 16.5214 26.9794 15.745C26.9794 14.9686 27.6063 14.3417 28.3827 14.3417C29.1591 14.3417 29.786 14.9686 29.786 15.745C29.7863 15.9294 29.7501 16.1119 29.6797 16.2823C29.6092 16.4527 29.5059 16.6075 29.3755 16.7378C29.2452 16.8682 29.0904 16.9715 28.92 17.042C28.7496 17.1124 28.5671 17.1486 28.3827 17.1483Z" fill="#654520"/>
</svg>
